<svg xmlns="http://www.w3.org/2000/svg" width="29.528" height="25" viewBox="0 0 29.528 25">
    <g id="Group_16" data-name="Group 16" transform="translate(-1.545 -4)">
        <g id="Group_15" data-name="Group 15" transform="translate(1 5)">
            <path id="Shape" d="M11.227,23A11.5,11.5,0,0,1,.672,16.072L22.455,14a11.5,11.5,0,0,1-11.228,9ZM0,9H0A11.386,11.386,0,0,1,.739,6.778a11.5,11.5,0,0,1,20.8-.382L0,9Z" transform="translate(3.973)" fill="none" stroke="#eee" stroke-linecap="round" stroke-linejoin="round" stroke-miterlimit="10" stroke-width="2"/>
            <path id="Shape-2" data-name="Shape" d="M11,11H0V9.625C0,8.6,1.121,7.941,2.062,7.564A10.211,10.211,0,0,1,5.5,6.875a10.211,10.211,0,0,1,3.438.689C9.879,7.941,11,8.6,11,9.625V11ZM5.5,5.5A2.75,2.75,0,1,1,8.25,2.75,2.753,2.753,0,0,1,5.5,5.5Z" transform="translate(9.7 6)" fill="#eee"/>
            <path id="Path_2" data-name="Path 2" d="M7.337,5.192a.5.5,0,0,0,.389-.814L4.581.482a.5.5,0,0,0-.778,0L.657,4.377a.5.5,0,0,0,.389.814Z" transform="translate(22.236 11)" fill="#eee"/>
            <path id="Path_2-2" data-name="Path 2" d="M7.337-5.192a.5.5,0,0,1,.389.814L4.581-.482a.5.5,0,0,1-.778,0L.657-4.377a.5.5,0,0,1,.389-.814Z" transform="translate(0 12.192)" fill="#eee"/>
        </g>
    </g>
</svg>
